<?xml version="1.0" encoding="UTF-8" standalone="no"?>
<!-- Created with Inkscape (http://www.inkscape.org/) -->

<svg
   width="500mm"
   height="500mm"
   viewBox="0 0 2 2"
   version="1.1"
   id="svg5"
   xmlns="http://www.w3.org/2000/svg"
   xmlns:svg="http://www.w3.org/2000/svg">
  <g>
    <path
       style="fill:none;stroke:#000000;stroke-width:0.004px"
       d="
         m 2,1
         s -0.0116145,-0.0134429 -0.024414,-0.0219468
         s -0.0294696,-0.0204852 -0.03023,-0.0209329
         s -0.196415,-0.118545 -0.222691,-0.137524
         s -0.045537,-0.0456326 -0.057044,-0.0595566
         s -0.017039,-0.0380879 -0.024961,-0.0465448
         s -0.107666,0.00085637 -0.175539,0.0118282
         s -0.150995,0.0075049 -0.179727,-0.007126
         s -0.0258234,-0.0363658 -0.0409272,-0.0432331
         s -0.1653918,0.13482424 -0.25211662,0.13443464
         s -0.0785759,-0.0436849 -0.10207301,-0.051869
         s -0.0766267,0.005914 -0.122514,0.0173154
         s -0.13007449,0.0358962 -0.15260324,0.0339472
         s -0.0182549,-0.0248894 -0.044393,-0.0403538
         s -0.0888453,-0.0117086 -0.12127293,-0.002863
         s -0.0719661,0.0216675 -0.12400938,0.0447317
         s -0.10563578,0.0533475 -0.1060753,0.0535716
         s -0.152223,0.082167 -0.21941,0.13613883
       "
    />
  </g>
</svg>
