<?xml version="1.0" encoding="UTF-8" standalone="no"?>
<!-- Created with Inkscape (http://www.inkscape.org/) -->

<svg
   width="500mm"
   height="500mm"
   viewBox="0 0 2 2"
   version="1.1"
   id="svg5"
   xmlns="http://www.w3.org/2000/svg"
   xmlns:svg="http://www.w3.org/2000/svg">
  <g>
    <path
       style="fill:none;stroke:#000000;stroke-width:0.004px"
       d="
         m 2,1
         s -0.0116146,-0.013443 -0.0244142,-0.0219468
         s -0.0296499,-0.0209797 -0.0302301,-0.0209329
         s -0.0160691,0.0291536 -0.0489013,0.0293877
         s -0.131336,-0.0375318 -0.139988,-0.0385226
         s -0.0137656,0.000373324 -0.0173319,0.0017774
         s -0.114437,0.0651418 -0.126937,0.0685661
         s -0.0317643,0.00267854 -0.0515361,-0.00264262
         s -0.174766,-0.0507301 -0.184731,-0.0519184
         s -0.0263649,-0.00660948 -0.0456512,0.00272949
         s -0.18449,0.0470837 -0.216059,0.0542701
         s -0.0537687,0.0132678 -0.0859009,-9.39181e-05
         s -0.0495719,-0.0245098 -0.0721006,-0.0264586
         s -0.187745,0.0927347 -0.216798,0.0988727
         s -0.0782287,0.00817087 -0.0985414,0.00554539
         s -0.0964148,-0.0438663 -0.113048,-0.0480607
         s -0.0434399,-0.00743291 -0.0621076,-0.00107301
         s -0.109424,0.0326105 -0.144729,0.0272099
         s -0.0517955,-0.0304882 -0.0652357,-0.0572705
         s -0.0148602,-0.0899853 -0.0172083,-0.10352
         s -0.0185593,-0.0519926 -0.0191417,-0.0520393
         s -0.152223,0.082167 -0.21941,0.136139
       "
    />
  </g>
</svg>
